<?xml version="1.0" encoding="utf-8"?>
<!-- Generator: Adobe Illustrator 18.1.1, SVG Export Plug-In . SVG Version: 6.00 Build 0)  -->
<!DOCTYPE svg PUBLIC "-//W3C//DTD SVG 1.1//EN" "http://www.w3.org/Graphics/SVG/1.1/DTD/svg11.dtd">
<svg version="1.1" id="Layer_1" xmlns="http://www.w3.org/2000/svg" xmlns:xlink="http://www.w3.org/1999/xlink" x="0px" y="0px"
	 width="90px" height="90px" viewBox="0 0 90 90" enable-background="new 0 0 90 90" xml:space="preserve">
<circle fill="#DAE3E6" cx="45" cy="45" r="45"/>
<path fill="#76D03B" d="M68.15,64.94c1.44,1.24,0.82,3.58-1.04,3.96C62.77,69.78,54.96,71,45,71c-10.14,0-17.73-1.19-21.98-2.07
	c-1.86-0.38-2.45-2.74-1-3.97c2.91-2.45,7.08-4.43,12.87-5.42c0.05-0.01,0.1-0.02,0.15-0.04h0.32c0.42,1.52,4.35,4.9,9.71,4.9
	c5.37,0,8.99-3.28,9.72-4.9l0.03-0.06c0.1,0.05,0.19,0.09,0.28,0.1C61.07,60.43,65.27,62.45,68.15,64.94z"/>
<path fill="#EFDCD2" d="M54.82,59.44l-0.03,0.06c-0.73,1.62-4.35,4.9-9.72,4.9c-5.36,0-9.29-3.38-9.71-4.9h-0.32
	c0.96-0.37,2.17-2.72,1.38-5.36c3.47,3.14,5.94,4.5,7.24,4.5c0.06,0,0.62-0.33,1.5-0.33c0.9,0,1.52,0.33,1.58,0.33
	c0.48,0,4.27-1.86,6.82-4.5C52.9,56.73,53.9,58.94,54.82,59.44z"/>
<path fill="#FFCC00" d="M52.06,20.41c4.82,1.71,8.36,5.96,7.69,11.84c-0.14,1.23-0.41,1.96-0.65,2.47l-0.02-0.01
	c0.13-2-1.75-2.71-3.04-2.25c-5.04,1.79-9.27-3-15.6,1.79c-0.88-1.5-1.11-4.46,1.12-6.25c-2.86,0.33-4.23,2.08-6.48,3.21
	c-2.3,1.15-3.72,1.23-3.67,3.1l-0.05,0.03c-0.38-0.55-0.7-0.78-0.82-1.3c-1.54-6.37,2.13-10,7.26-12.31
	c0.98-0.44,0.24-6.34,1.32-5.29C42.11,18.34,50.13,19.72,52.06,20.41z"/>
<path fill="#EFDCD2" d="M59.08,34.71l0.02,0.01c-0.18,0.41-0.35,0.67-0.39,0.95c0,0-0.71-0.5-0.83,0.14
	c0.49,0.5,1.47,1.24,1.47,2.38c0,1.73-0.43,5.14-2.4,6.21c-0.18,3.8-3.39,9.74-3.39,9.74c-2.55,2.64-6.34,4.5-6.82,4.5
	c-0.06,0-0.68-0.33-1.58-0.33c-0.88,0-1.44,0.33-1.5,0.33c-1.3,0-3.77-1.36-7.24-4.5c0,0-3.2-5.94-3.37-9.74
	c-1.97-0.98-2.41-4.48-2.41-6.21c0-1.14,0.98-1.88,1.47-2.38c-0.26-0.7-0.52-1.14-0.75-1.47l0.05-0.03
	c-0.05-1.87,1.37-1.95,3.67-3.1c2.25-1.13,3.62-2.88,6.48-3.21c-2.23,1.79-2,4.75-1.12,6.25c6.33-4.79,10.56,0,15.6-1.79
	C57.33,32,59.21,32.71,59.08,34.71z"/>
<path fill="#383128" d="M45,72c-10.017,0-17.591-1.135-22.182-2.087c-1.238-0.257-2.2-1.178-2.511-2.404
	c-0.31-1.227,0.1-2.496,1.067-3.311c3.326-2.801,7.816-4.702,13.348-5.648c0.4-0.187,1.383-1.97,0.737-4.127
	c-0.158-0.529,0.143-1.086,0.671-1.245c0.53-0.161,1.087,0.143,1.245,0.671c0.649,2.17,0.127,4.158-0.579,5.295
	c-0.483,0.779-1.101,1.269-1.737,1.377c-5.175,0.886-9.346,2.637-12.396,5.206c-0.384,0.323-0.54,0.806-0.417,1.292
	c0.122,0.484,0.488,0.834,0.978,0.936C27.724,68.888,35.153,70,45,70c9.642,0,17.239-1.133,21.915-2.083
	c0.492-0.1,0.861-0.449,0.987-0.933c0.126-0.481-0.024-0.962-0.402-1.288c-3.063-2.642-7.285-4.381-12.549-5.171
	c-0.61-0.091-1.181-0.513-1.649-1.218c-0.729-1.099-1.299-3.099-0.708-5.417c0.136-0.536,0.681-0.861,1.216-0.723
	c0.535,0.137,0.858,0.681,0.722,1.216c-0.571,2.244,0.347,3.983,0.769,4.178c5.591,0.833,10.152,2.729,13.507,5.621
	c0.954,0.823,1.35,2.09,1.031,3.308c-0.318,1.221-1.286,2.136-2.524,2.388C62.548,70.845,54.809,72,45,72z"/>
<path fill="#383128" d="M40.074,41.2h-0.199c-0.553,0-1-0.448-1-1s0.447-1,1-1h0.199c0.553,0,1,0.448,1,1S40.627,41.2,40.074,41.2z"
	/>
<path fill="#383128" d="M50.08,41.2h-0.199c-0.553,0-1-0.448-1-1s0.447-1,1-1h0.199c0.553,0,1,0.448,1,1S50.633,41.2,50.08,41.2z"/>
<path fill="#383128" d="M42.375,40h-4.874c-0.553,0-1-0.448-1-1s0.447-1,1-1h4.874c0.553,0,1,0.448,1,1S42.928,40,42.375,40z"/>
<path fill="#383128" d="M52.526,40h-4.875c-0.553,0-1-0.448-1-1s0.447-1,1-1h4.875c0.553,0,1,0.448,1,1S53.079,40,52.526,40z"/>
<path fill="#383128" d="M46.738,59.644c-0.2,0-0.346-0.057-0.463-0.103c-0.174-0.068-0.579-0.228-1.115-0.228
	c-0.497,0-0.846,0.146-1.014,0.217c-0.113,0.048-0.27,0.113-0.482,0.113c-2.188,0-5.514-2.592-7.917-4.766
	c-0.085-0.077-0.155-0.167-0.21-0.268c-0.129-0.24-3.03-5.668-3.448-9.624c-2.32-1.696-2.445-5.917-2.445-6.796
	c0-1.205,0.712-2.054,1.281-2.618c-0.241-0.5-0.466-0.78-0.67-1.035c-0.256-0.319-0.545-0.681-0.686-1.26
	c-1.423-5.886,1.138-10.379,7.613-13.359c0.136-0.435,0.193-1.56,0.229-2.258c0.096-1.868,0.171-3.343,1.478-3.343
	c0.23,0,0.578,0.07,0.925,0.406c2.104,2.037,7.234,3.339,10.3,4.118c1.001,0.254,1.791,0.454,2.284,0.629
	c5.727,2.034,9.003,7.095,8.347,12.894c-0.188,1.663-0.606,2.522-0.883,3.092c-0.073,0.152-0.157,0.325-0.169,0.391
	c-0.02,0.106-0.056,0.208-0.106,0.3c0.409,0.521,0.764,1.194,0.764,2.044c0,0.863-0.124,5.024-2.444,6.781
	c-0.413,3.958-3.333,9.401-3.463,9.641c-0.044,0.08-0.098,0.154-0.161,0.22C51.731,57.465,47.713,59.644,46.738,59.644z
	 M37.22,53.512c3.893,3.497,5.714,4.042,6.287,4.119c0.331-0.13,0.904-0.318,1.653-0.318c0.721,0,1.293,0.165,1.628,0.284
	c0.878-0.333,3.815-1.887,5.958-4.057c0.444-0.847,3.05-5.943,3.201-9.184c0.017-0.349,0.214-0.665,0.521-0.832
	c1.292-0.702,1.881-3.257,1.881-5.335c0-0.548-0.493-1.015-0.929-1.428c-0.091-0.086-0.176-0.167-0.251-0.243
	c-0.23-0.232-0.333-0.564-0.273-0.886c0.123-0.661,0.593-1.101,1.212-1.146c0.224-0.465,0.508-1.112,0.648-2.349
	c0.664-5.875-3.195-9.423-7.029-10.784c-0.405-0.144-1.193-0.344-2.106-0.576c-2.862-0.727-7.418-1.883-10.169-3.786
	c-0.018,0.266-0.031,0.539-0.043,0.769c-0.098,1.913-0.175,3.424-1.201,3.886c-5.78,2.599-7.907,6.145-6.694,11.16
	c0.032,0.133,0.086,0.209,0.302,0.479c0.313,0.39,0.784,0.979,1.234,2.178c0.137,0.366,0.049,0.778-0.227,1.055
	c-0.075,0.076-0.16,0.156-0.251,0.243c-0.436,0.413-0.929,0.88-0.929,1.428c0,1.765,0.493,4.637,1.853,5.32
	c0.322,0.162,0.533,0.486,0.55,0.847C34.195,47.563,36.737,52.584,37.22,53.512z"/>
<path fill="#383128" d="M59.084,35.708c-0.021,0-0.042,0-0.063-0.002c-0.551-0.035-0.97-0.509-0.936-1.061
	c0.03-0.477-0.108-0.834-0.409-1.062c-0.342-0.259-0.877-0.334-1.3-0.184c-2.285,0.812-4.381,0.428-6.408,0.058
	c-2.827-0.516-5.498-1.004-8.926,1.589c-0.229,0.173-0.519,0.24-0.8,0.183c-0.28-0.056-0.523-0.229-0.668-0.477
	c-0.69-1.185-1.051-3.099-0.472-4.89c-0.471,0.268-0.924,0.578-1.402,0.905c-0.667,0.455-1.355,0.926-2.17,1.333
	c-0.526,0.263-1.008,0.472-1.438,0.659c-1.562,0.677-1.703,0.806-1.687,1.528c0.012,0.552-0.426,1.01-0.978,1.022
	c-0.008,0-0.016,0-0.022,0c-0.542,0-0.987-0.433-1-0.978c-0.048-2.133,1.379-2.752,2.89-3.408c0.401-0.174,0.85-0.369,1.34-0.614
	c0.692-0.346,1.297-0.759,1.936-1.196c1.341-0.917,2.728-1.864,4.878-2.111c0.446-0.051,0.865,0.198,1.037,0.608
	c0.172,0.411,0.051,0.886-0.297,1.165c-1.33,1.068-1.546,2.695-1.276,3.929c3.646-2.271,6.695-1.713,9.414-1.218
	c1.851,0.338,3.6,0.656,5.38,0.024c1.053-0.373,2.297-0.188,3.173,0.472c0.847,0.639,1.273,1.627,1.201,2.783
	C60.048,35.3,59.607,35.708,59.084,35.708z"/>
<path fill="#383128" d="M45.072,65.398c-5.892,0-10.145-3.719-10.678-5.629c-0.148-0.532,0.162-1.083,0.694-1.232
	c0.528-0.146,1.084,0.162,1.231,0.694c0.3,1.071,3.773,4.167,8.752,4.167c5.171,0,8.305-3.205,8.804-4.31
	c0.227-0.502,0.815-0.728,1.322-0.5c0.504,0.227,0.728,0.819,0.5,1.323C54.924,61.63,51.171,65.398,45.072,65.398z"/>
<path fill="#383128" d="M45,52.3c-1.479,0-2.311-0.345-2.4-0.384c-0.506-0.221-0.737-0.811-0.516-1.317
	c0.221-0.505,0.807-0.736,1.316-0.516l0,0c0.001,0,0.559,0.217,1.6,0.217c1.049,0,1.607-0.22,1.613-0.222
	c0.502-0.205,1.091,0.033,1.302,0.538c0.212,0.504-0.014,1.082-0.515,1.301C47.311,51.956,46.479,52.3,45,52.3z"/>
</svg>
