<?xml version="1.0" encoding="utf-8"?>
<!-- Generator: Adobe Illustrator 18.1.1, SVG Export Plug-In . SVG Version: 6.00 Build 0)  -->
<!DOCTYPE svg PUBLIC "-//W3C//DTD SVG 1.1//EN" "http://www.w3.org/Graphics/SVG/1.1/DTD/svg11.dtd">
<svg version="1.1" id="Layer_1" xmlns="http://www.w3.org/2000/svg" xmlns:xlink="http://www.w3.org/1999/xlink" x="0px" y="0px"
	 width="90px" height="90px" viewBox="0 0 90 90" enable-background="new 0 0 90 90" xml:space="preserve">
<circle fill="#83AEED" cx="45" cy="45" r="45"/>
<circle fill="#DAE3E6" cx="45" cy="45" r="25"/>
<path fill="#859FE5" d="M63.201,62.128L63.201,62.128c-2.356-2.081-6.245-3.714-10.963-4.55c-0.694-0.123-1.196-0.72-1.166-1.424
	c0.033-0.765,0.033-1.577,0.029-2.422c0-1.939,2.333-4.274,2.46-6.997c0.776-1.611,1.22-3.214,1.22-4.453
	c0-0.814-0.2-1.348-0.551-1.702c0.19-1.014,0.353-2.086,0.551-3.19c0.799-4.438-0.75-7.636-4.648-9.02
	c-1.406-0.499-7.241-1.51-9.415-3.616c-0.787-0.762-0.248,3.531-0.961,3.851c-3.82,1.717-5.334,4.387-4.542,8.785
	c0.199,1.104,0.361,2.176,0.551,3.19c-0.351,0.353-0.551,0.887-0.551,1.702c0,1.239,0.444,2.842,1.22,4.453
	c0.127,2.723,2.46,4.922,2.46,6.997c-0.004,0.845-0.004,1.657,0.029,2.422c0.03,0.704-0.472,1.301-1.166,1.424
	c-4.718,0.837-8.607,2.47-10.963,4.55l0,0C31.358,66.971,37.823,70,45,70S58.642,66.971,63.201,62.128z"/>
<path fill="#232E38" d="M45,71c-14.336,0-26-11.664-26-26s11.664-26,26-26s26,11.664,26,26S59.336,71,45,71z M45,21
	c-13.233,0-24,10.767-24,24s10.767,24,24,24s24-10.767,24-24S58.233,21,45,21z"/>
<path fill="#232E38" d="M63.201,63.128c-0.235,0-0.471-0.083-0.661-0.25c-2.247-1.983-5.967-3.515-10.476-4.314
	c-1.186-0.21-2.041-1.265-1.99-2.452c0.032-0.75,0.031-1.546,0.028-2.375c0-1.157,0.575-2.273,1.184-3.455
	c0.6-1.163,1.22-2.367,1.277-3.593c0.006-0.134,0.04-0.266,0.098-0.387c0.712-1.479,1.121-2.944,1.121-4.019
	c0-0.487-0.088-0.823-0.261-0.997c-0.232-0.233-0.334-0.565-0.273-0.889c0.103-0.548,0.197-1.113,0.294-1.691
	c0.082-0.489,0.165-0.987,0.256-1.492c0.728-4.042-0.617-6.7-3.998-7.9c-0.282-0.101-0.849-0.244-1.506-0.411
	c-2.091-0.531-5.059-1.284-7.086-2.53c-0.001,0.029-0.003,0.057-0.004,0.084c-0.076,1.485-0.136,2.658-1.035,3.062
	c-3.471,1.561-4.658,3.862-3.968,7.695c0.091,0.505,0.174,1.003,0.256,1.492c0.097,0.578,0.191,1.143,0.294,1.691
	c0.061,0.323-0.042,0.655-0.273,0.889c-0.173,0.174-0.261,0.51-0.261,0.997c0,1.075,0.409,2.54,1.121,4.019
	c0.059,0.121,0.092,0.253,0.098,0.387c0.056,1.202,0.661,2.359,1.245,3.479c0.625,1.197,1.216,2.329,1.216,3.565
	c-0.003,0.833-0.004,1.628,0.028,2.379c0.051,1.187-0.804,2.241-1.99,2.452c-4.509,0.799-8.229,2.332-10.476,4.314
	c-0.414,0.366-1.046,0.327-1.411-0.088c-0.366-0.414-0.326-1.046,0.088-1.411c2.518-2.223,6.584-3.922,11.45-4.785
	c0.209-0.037,0.35-0.2,0.341-0.396c-0.033-0.78-0.033-1.607-0.03-2.468c0-0.742-0.48-1.662-0.989-2.636
	c-0.625-1.197-1.33-2.548-1.457-4.102c-0.797-1.705-1.235-3.37-1.235-4.708c0-0.8,0.16-1.447,0.487-1.962
	c-0.075-0.42-0.146-0.849-0.22-1.284c-0.081-0.481-0.163-0.971-0.252-1.468c-0.842-4.68,0.698-7.785,4.846-9.749
	c0.071-0.343,0.106-1.028,0.128-1.465c0.07-1.378,0.117-2.289,0.938-2.612c0.431-0.169,0.906-0.06,1.271,0.295
	c1.478,1.432,5.311,2.404,7.371,2.927c0.733,0.186,1.313,0.333,1.683,0.464c4.317,1.534,6.198,5.134,5.297,10.14
	c-0.089,0.497-0.171,0.986-0.252,1.468c-0.073,0.436-0.145,0.864-0.22,1.284c0.327,0.515,0.487,1.163,0.487,1.962
	c0,1.338-0.438,3.004-1.235,4.708c-0.127,1.576-0.847,2.971-1.484,4.207c-0.495,0.96-0.962,1.866-0.962,2.534
	c0.003,0.857,0.003,1.684-0.03,2.464c-0.008,0.197,0.132,0.36,0.341,0.397c4.865,0.863,8.932,2.562,11.45,4.785
	c0.414,0.365,0.454,0.997,0.088,1.411C63.754,63.014,63.478,63.128,63.201,63.128z"/>
</svg>
