<?xml version="1.0" encoding="utf-8"?>
<!-- Generator: Adobe Illustrator 18.0.0, SVG Export Plug-In . SVG Version: 6.00 Build 0)  -->
<!DOCTYPE svg PUBLIC "-//W3C//DTD SVG 1.1//EN" "http://www.w3.org/Graphics/SVG/1.1/DTD/svg11.dtd">
<svg version="1.1" id="Layer_1" xmlns="http://www.w3.org/2000/svg" xmlns:xlink="http://www.w3.org/1999/xlink" x="0px" y="0px"
	 viewBox="0 0 128 128" enable-background="new 0 0 128 128" xml:space="preserve">
<g>
	<circle fill="#3FA3DB" cx="64" cy="64" r="64"/>
	<path fill="#337CBF" d="M78.8,126.3C107,119.6,128,94.2,128,64c0-1.5-0.1-2.9-0.2-4.4l0,0L105.2,37l-0.9,0.4L85.9,35l-7.6,7.6
		l0.9,15.2L78,66.9L48.3,37.2l-15.2-2.4l-10.2,6.5L21,56l5,5l-3.2,3.1l34.4,34.4l-1.5,4.7L78.8,126.3z"/>
	<g>
		<g>
			<g>
				<g>
					<g>
						<path fill="#535E6F" d="M51.3,74C51.3,74,51.3,74,51.3,74c1.7,0,3.3,0.6,4.5,1.8l3.4,3.2c1.3,1.2,2,2.8,2,4.6
							c0,1.7-0.6,3.4-1.8,4.6c-1.2,1.3-2.9,2-4.7,2c-1.7,0-3.3-0.6-4.5-1.8l-3.4-3.2c-2.6-2.5-2.7-6.6-0.2-9.2
							C47.8,74.7,49.5,74,51.3,74z M54.7,87.5c1.1,0,2-0.4,2.8-1.2c0.7-0.7,1.1-1.7,1.1-2.7c0-1-0.4-2-1.2-2.7l-3.4-3.2
							c-0.7-0.7-1.6-1.1-2.6-1.1h0c-1.1,0-2,0.4-2.8,1.2c-1.5,1.5-1.4,3.9,0.1,5.4l3.4,3.2C52.7,87.1,53.7,87.5,54.7,87.5z"/>
					</g>
					<g>
						<path fill="#535E6F" d="M76.7,74c1.8,0,3.5,0.7,4.7,2c2.5,2.6,2.4,6.7-0.2,9.2l-3.4,3.2c-1.2,1.2-2.8,1.8-4.5,1.8
							c-1.8,0-3.5-0.7-4.7-2c-2.5-2.6-2.4-6.7,0.2-9.2l3.4-3.2C73.4,74.6,75,74,76.7,74z M73.3,87.5c1,0,1.9-0.4,2.6-1.1l3.4-3.2
							c1.5-1.5,1.6-3.9,0.1-5.4c-0.7-0.8-1.7-1.2-2.8-1.2c-1,0-1.9,0.4-2.6,1.1l-3.4,3.2c-1.5,1.5-1.6,3.9-0.1,5.4
							C71.3,87.1,72.3,87.5,73.3,87.5z"/>
					</g>
				</g>
				<g>
					<path fill="#616B77" d="M84.2,66.6c0.3,0,0.5,0.1,0.8,0.2c0.6,0.4,0.8,1.3,0.3,1.9l-7.4,10.7c-0.4,0.6-1.3,0.8-1.9,0.3
						c-0.6-0.4-0.8-1.3-0.3-1.9l7.4-10.7C83.4,66.8,83.8,66.6,84.2,66.6z"/>
				</g>
				<g>
					<path fill="#616B77" d="M56,83.3H72c0.7,0,1.3,0.6,1.3,1.3S72.7,86,72,86H56c-0.7,0-1.3-0.6-1.3-1.3S55.3,83.3,56,83.3z"/>
				</g>
				<g>
					<path fill="#616B77" d="M43.8,66.6c0.4,0,0.8,0.2,1.1,0.6l7.4,10.7c0.4,0.6,0.3,1.5-0.3,1.9c-0.6,0.4-1.5,0.3-1.9-0.3
						l-7.4-10.7c-0.4-0.6-0.3-1.5,0.3-1.9C43.3,66.7,43.5,66.6,43.8,66.6z"/>
				</g>
			</g>
			<g>
				<path fill="#E5E8EC" d="M77.4,63L77,65.3c-0.3,1.7,0.5,3.3,2,4.1l6.9,3.4c1.5,0.7,3.3,0.4,4.5-0.9l1.6-1.8
					c0.6-0.7,1.5-1.1,2.5-1.2c6.1-0.6,11.8-4.3,14.7-10.2c4.7-9.5,0.5-21-9.4-25.2c-8.6-3.6-18.6-0.1-23.2,8
					c-3.4,6.1-3,13.2,0.4,18.7C77.4,61.1,77.6,62.1,77.4,63z M81.5,45.2c3-6.1,10.4-8.6,16.5-5.6c6.1,3,8.6,10.4,5.6,16.5
					c-3,6.1-10.4,8.6-16.5,5.6C81,58.7,78.5,51.3,81.5,45.2z"/>
				<path fill="#E5E8EC" d="M18.9,58.8c2.9,5.9,8.6,9.6,14.7,10.2c0.9,0.1,1.8,0.5,2.5,1.2l1.6,1.8c1.1,1.3,3,1.6,4.5,0.9l6.9-3.4
					c1.5-0.7,2.4-2.4,2-4.1L50.6,63c-0.2-0.9,0-1.9,0.5-2.7c3.4-5.5,3.8-12.6,0.4-18.7c-4.5-8.1-14.6-11.6-23.2-8
					C18.5,37.7,14.2,49.3,18.9,58.8z M30,39.6c6.1-3,13.5-0.5,16.5,5.6c3,6.1,0.5,13.5-5.6,16.5c-6.1,3-13.5,0.5-16.5-5.6
					C21.4,50,23.9,42.6,30,39.6z"/>
			</g>
		</g>
		<g>
			<path fill="#FFFFFF" d="M64,96.8L64,96.8c0.8,0,1.5,0.7,1.5,1.5v6.1c0,0.8-0.7,1.5-1.5,1.5l0,0c-0.8,0-1.5-0.7-1.5-1.5v-6.1
				C62.5,97.5,63.2,96.8,64,96.8z"/>
			<g>
				<path fill="#FFFFFF" d="M56.3,103.5c0.8,0.3,1.6-0.1,1.9-0.8l2.3-5.6c0.3-0.8-0.1-1.6-0.8-1.9c-0.8-0.3-1.6,0.1-1.9,0.8
					l-2.3,5.6C55.1,102.3,55.5,103.2,56.3,103.5z"/>
				<path fill="#FFFFFF" d="M71.7,103.5c-0.8,0.3-1.6-0.1-1.9-0.8L67.5,97c-0.3-0.8,0.1-1.6,0.8-1.9c0.8-0.3,1.6,0.1,1.9,0.8
					l2.3,5.6C72.9,102.3,72.5,103.2,71.7,103.5z"/>
			</g>
		</g>
	</g>
</g>
</svg>
