<?xml version="1.0" encoding="utf-8"?>
<!-- Generator: Adobe Illustrator 18.0.0, SVG Export Plug-In . SVG Version: 6.00 Build 0)  -->
<!DOCTYPE svg PUBLIC "-//W3C//DTD SVG 1.1//EN" "http://www.w3.org/Graphics/SVG/1.1/DTD/svg11.dtd">
<svg version="1.1" id="Layer_1" xmlns="http://www.w3.org/2000/svg" xmlns:xlink="http://www.w3.org/1999/xlink" x="0px" y="0px"
	 viewBox="0 0 128 128" enable-background="new 0 0 128 128" xml:space="preserve">
<g>
	<circle fill="#EF4C45" cx="64" cy="64" r="64"/>
	<path fill="#CD2E30" d="M45.9,97.5L75.4,127c29.9-5.4,52.6-31.5,52.6-63c0-1.5-0.1-3-0.2-4.4L97.2,28.9L45.9,97.5z"/>
	<g>
		<path fill="#E5E8EC" d="M101.7,41.2l-3.4-10.4c-0.8-2.4-3.4-3.8-5.9-3.1l0,0c-2.5,0.7-5,1.1-7.5,1.1c-9.8,0-16.5-5.9-17.8-7l0,0
			c-1.8-1.7-4.7-1.7-6.5,0l0,0c-1.2,1.2-8,7-17.8,7c-2.5,0-5-0.4-7.5-1.1l0,0c-2.5-0.7-5.1,0.6-5.9,3.1l-3.4,10.4l0,0.1
			c-0.7,2.4,0.5,4.9,2.8,5.8l0.1,0c1.7,0.7,2.9,2.2,3.3,4.1c0.3,1.4,0,2.9-0.6,4.1c-2.4,4.9-3.6,10.1-3.6,15.6
			c0,19.2,29.8,34.5,33.1,36.2c1.3,0.7,2.9,0.7,4.2,0c3.4-1.7,33.1-16.9,33.1-36.2c0-5.4-1.2-10.5-3.5-15.3
			c-1.4-2.9-0.3-6.3,2.4-7.8c0.8-0.4,1.4-0.7,1.5-0.7l0,0C101.3,46.1,102.5,43.6,101.7,41.2z"/>
		<path fill="#535E6F" d="M95.3,43.6c1.2-0.6,1.9-0.9,1.9-0.9l-3.4-10.4c-16.3,4.8-27.7-5-29.9-7c-2.1,2-13.6,11.8-29.9,7l-3.4,10.4
			c0,0,0.1,0,0.2,0.1c5.6,2.4,7.9,9,5.2,14.5c-2.1,4.1-3.3,8.8-3.3,13.7c0,16.8,30.5,31.9,30.5,31.9s30.5-15.1,30.5-31.9
			c0-4.7-1.1-9.2-3-13.2C88.3,52.5,90.2,46.2,95.3,43.6z"/>
		<circle fill="#0BB6EA" cx="64" cy="70.4" r="20.1"/>
		<circle fill="#0BB6EA" cx="64" cy="70.4" r="20.1"/>
		<path fill="#0095CF" d="M84.1,70.5l-5.6-5.6l-2.1,1.5L64.9,54.9l-1.2,8.6l-3.5,2.7l-11,0.4l11,11l-3.6,2.8l-1.9,2.8l7.3,7.3
			c0.7,0.1,1.3,0.1,2,0.1C75.1,90.5,84.1,81.5,84.1,70.5z"/>
		<path fill="#FFCC04" d="M77.9,64.6c-0.6,0-1.1,0.4-1.1,1l-8.4-1.2l-3.8-7.7c0.4-0.2,0.7-0.6,0.7-1.1c0-0.6-0.5-1.2-1.2-1.2
			c-0.6,0-1.2,0.5-1.2,1.2c0,0.4,0.2,0.8,0.6,1l-3.8,7.7l-8.4,1.2c-0.1-0.6-0.5-1-1.1-1c-0.6,0-1.2,0.5-1.2,1.2
			c0,0.6,0.5,1.2,1.2,1.2c0.3,0,0.6-0.1,0.8-0.3l6.1,6l-1.5,8.5c0,0-0.1,0-0.1,0c-0.6,0-1.2,0.5-1.2,1.2c0,0.6,0.5,1.2,1.2,1.2
			c0.6,0,1.2-0.5,1.2-1.2c0-0.2-0.1-0.4-0.2-0.6l7.6-4l7.6,4c-0.1,0.2-0.1,0.3-0.1,0.5c0,0.6,0.5,1.2,1.2,1.2c0.6,0,1.2-0.5,1.2-1.2
			c0-0.6-0.5-1.2-1.2-1.2c-0.1,0-0.2,0-0.2,0L71,72.6l6.1-6c0.2,0.2,0.5,0.3,0.8,0.3c0.6,0,1.2-0.5,1.2-1.2
			C79,65.2,78.5,64.6,77.9,64.6z"/>
	</g>
</g>
</svg>
