<?xml version="1.0" encoding="utf-8"?>
<!-- Generator: Adobe Illustrator 18.0.0, SVG Export Plug-In . SVG Version: 6.00 Build 0)  -->
<!DOCTYPE svg PUBLIC "-//W3C//DTD SVG 1.1//EN" "http://www.w3.org/Graphics/SVG/1.1/DTD/svg11.dtd">
<svg version="1.1" id="Layer_1" xmlns="http://www.w3.org/2000/svg" xmlns:xlink="http://www.w3.org/1999/xlink" x="0px" y="0px"
	 viewBox="0 0 128 128" enable-background="new 0 0 128 128" xml:space="preserve">
<g>
	<circle fill="#2C81C6" cx="64" cy="64" r="64"/>
	<path fill="#1E67AF" d="M127.8,59.4l-25.3-25.3L25.7,97.5l29.9,29.9c2.7,0.4,5.5,0.6,8.3,0.6c35.3,0,64-28.7,64-64
		C128,62.5,127.9,61,127.8,59.4z"/>
	<g>
		<path fill="#FFFFFF" d="M103.6,44.2v50.2c0,2.4-2,4.4-4.4,4.4H28.8c-2.4,0-4.4-2-4.4-4.4V44.2H103.6z"/>
		<path fill="#535E6F" d="M103.6,44.2V37c0-2.4-1.9-4.4-4.4-4.4H28.8c-2.4,0-4.4,1.9-4.4,4.4v7.2H103.6z"/>
		<circle fill="#FFFFFF" cx="33.2" cy="38.4" r="3.7"/>
		<circle fill="#EF4C45" cx="33.2" cy="38.4" r="2.3"/>
		<circle fill="#FFFFFF" cx="42.5" cy="38.4" r="3.7"/>
		<circle fill="#FFCC04" cx="42.5" cy="38.4" r="2.3"/>
		<circle fill="#FFFFFF" cx="51.8" cy="38.4" r="3.7"/>
		<circle fill="#BED630" cx="51.8" cy="38.4" r="2.3"/>
		<path fill="#BED630" d="M43.9,59.6h-7.3c-1,0-1.8-0.8-1.8-1.8v-7.3c0-1,0.8-1.8,1.8-1.8h7.3c1,0,1.8,0.8,1.8,1.8v7.3
			C45.8,58.8,45,59.6,43.9,59.6z"/>
		<path fill="#009A9C" d="M43.9,74.3h-7.3c-1,0-1.8-0.8-1.8-1.8v-7.3c0-1,0.8-1.8,1.8-1.8h7.3c1,0,1.8,0.8,1.8,1.8v7.3
			C45.8,73.5,45,74.3,43.9,74.3z"/>
		<path fill="#F06097" d="M43.9,89.3h-7.3c-1,0-1.8-0.8-1.8-1.8v-7.3c0-1,0.8-1.8,1.8-1.8h7.3c1,0,1.8,0.8,1.8,1.8v7.3
			C45.8,88.5,45,89.3,43.9,89.3z"/>
		<g>
			<path fill="#C5DFDC" d="M60.8,49.8h-8c-0.4,0-0.7,0.3-0.7,0.7l0,0c0,0.4,0.3,0.7,0.7,0.7h8c0.4,0,0.7-0.3,0.7-0.7l0,0
				C61.5,50.1,61.2,49.8,60.8,49.8z"/>
			<path fill="#C5DFDC" d="M77.7,49.8H63.5c-0.4,0-0.7,0.3-0.7,0.7l0,0c0,0.4,0.3,0.7,0.7,0.7h14.2c0.4,0,0.7-0.3,0.7-0.7l0,0
				C78.4,50.1,78.1,49.8,77.7,49.8z"/>
			<path fill="#C5DFDC" d="M92.2,49.8h-12c-0.4,0-0.7,0.3-0.7,0.7l0,0c0,0.4,0.3,0.7,0.7,0.7h12c0.4,0,0.7-0.3,0.7-0.7l0,0
				C92.9,50.1,92.6,49.8,92.2,49.8z"/>
			<path fill="#C5DFDC" d="M76.7,52.7h15.5c0.4,0,0.7,0.3,0.7,0.7v0c0,0.4-0.3,0.7-0.7,0.7H76.7c-0.4,0-0.7-0.3-0.7-0.7v0
				C76,53,76.3,52.7,76.7,52.7z"/>
			<path fill="#C5DFDC" d="M62.7,52.7H74c0.4,0,0.7,0.3,0.7,0.7v0c0,0.4-0.3,0.7-0.7,0.7H62.7c-0.4,0-0.7-0.3-0.7-0.7v0
				C62,53,62.3,52.7,62.7,52.7z"/>
			<path fill="#C5DFDC" d="M52.7,52.7h7.5c0.4,0,0.7,0.3,0.7,0.7v0c0,0.4-0.3,0.7-0.7,0.7h-7.5c-0.4,0-0.7-0.3-0.7-0.7v0
				C52,53,52.3,52.7,52.7,52.7z"/>
			<path fill="#C5DFDC" d="M64.3,55.6H52.7c-0.4,0-0.7,0.3-0.7,0.7v0c0,0.4,0.3,0.7,0.7,0.7h11.6c0.4,0,0.7-0.3,0.7-0.7v0
				C65,56,64.7,55.6,64.3,55.6z"/>
			<path fill="#C5DFDC" d="M82.3,55.6H67c-0.4,0-0.7,0.3-0.7,0.7v0c0,0.4,0.3,0.7,0.7,0.7h15.2c0.4,0,0.7-0.3,0.7-0.7v0
				C83,56,82.7,55.6,82.3,55.6z"/>
		</g>
		<g>
			<path fill="#C5DFDC" d="M60.8,63.9h-8c-0.4,0-0.7,0.3-0.7,0.7v0c0,0.4,0.3,0.7,0.7,0.7h8c0.4,0,0.7-0.3,0.7-0.7v0
				C61.5,64.2,61.2,63.9,60.8,63.9z"/>
			<path fill="#C5DFDC" d="M77.7,63.9H63.5c-0.4,0-0.7,0.3-0.7,0.7v0c0,0.4,0.3,0.7,0.7,0.7h14.2c0.4,0,0.7-0.3,0.7-0.7v0
				C78.4,64.2,78.1,63.9,77.7,63.9z"/>
			<path fill="#C5DFDC" d="M92.2,63.9h-12c-0.4,0-0.7,0.3-0.7,0.7v0c0,0.4,0.3,0.7,0.7,0.7h12c0.4,0,0.7-0.3,0.7-0.7v0
				C92.9,64.2,92.6,63.9,92.2,63.9z"/>
			<path fill="#C5DFDC" d="M76.7,66.8h15.5c0.4,0,0.7,0.3,0.7,0.7v0c0,0.4-0.3,0.7-0.7,0.7H76.7c-0.4,0-0.7-0.3-0.7-0.7v0
				C76,67.1,76.3,66.8,76.7,66.8z"/>
			<path fill="#C5DFDC" d="M62.7,66.8H74c0.4,0,0.7,0.3,0.7,0.7v0c0,0.4-0.3,0.7-0.7,0.7H62.7c-0.4,0-0.7-0.3-0.7-0.7v0
				C62,67.1,62.3,66.8,62.7,66.8z"/>
			<path fill="#C5DFDC" d="M52.7,66.8h7.5c0.4,0,0.7,0.3,0.7,0.7v0c0,0.4-0.3,0.7-0.7,0.7h-7.5c-0.4,0-0.7-0.3-0.7-0.7v0
				C52,67.1,52.3,66.8,52.7,66.8z"/>
			<path fill="#C5DFDC" d="M64.3,69.7H52.7c-0.4,0-0.7,0.3-0.7,0.7l0,0c0,0.4,0.3,0.7,0.7,0.7h11.6c0.4,0,0.7-0.3,0.7-0.7l0,0
				C65,70,64.7,69.7,64.3,69.7z"/>
			<path fill="#C5DFDC" d="M82.3,69.7H67c-0.4,0-0.7,0.3-0.7,0.7l0,0c0,0.4,0.3,0.7,0.7,0.7h15.2c0.4,0,0.7-0.3,0.7-0.7l0,0
				C83,70,82.7,69.7,82.3,69.7z"/>
		</g>
		<g>
			<path fill="#C5DFDC" d="M60.8,80.2h-8c-0.4,0-0.7,0.3-0.7,0.7l0,0c0,0.4,0.3,0.7,0.7,0.7h8c0.4,0,0.7-0.3,0.7-0.7l0,0
				C61.5,80.5,61.2,80.2,60.8,80.2z"/>
			<path fill="#C5DFDC" d="M77.7,80.2H63.5c-0.4,0-0.7,0.3-0.7,0.7l0,0c0,0.4,0.3,0.7,0.7,0.7h14.2c0.4,0,0.7-0.3,0.7-0.7l0,0
				C78.4,80.5,78.1,80.2,77.7,80.2z"/>
			<path fill="#C5DFDC" d="M92.2,80.2h-12c-0.4,0-0.7,0.3-0.7,0.7l0,0c0,0.4,0.3,0.7,0.7,0.7h12c0.4,0,0.7-0.3,0.7-0.7l0,0
				C92.9,80.5,92.6,80.2,92.2,80.2z"/>
			<path fill="#C5DFDC" d="M76.7,83.1h15.5c0.4,0,0.7,0.3,0.7,0.7l0,0c0,0.4-0.3,0.7-0.7,0.7H76.7c-0.4,0-0.7-0.3-0.7-0.7l0,0
				C76,83.5,76.3,83.1,76.7,83.1z"/>
			<path fill="#C5DFDC" d="M62.7,83.1H74c0.4,0,0.7,0.3,0.7,0.7l0,0c0,0.4-0.3,0.7-0.7,0.7H62.7c-0.4,0-0.7-0.3-0.7-0.7l0,0
				C62,83.5,62.3,83.1,62.7,83.1z"/>
			<path fill="#C5DFDC" d="M52.7,83.1h7.5c0.4,0,0.7,0.3,0.7,0.7l0,0c0,0.4-0.3,0.7-0.7,0.7h-7.5c-0.4,0-0.7-0.3-0.7-0.7l0,0
				C52,83.5,52.3,83.1,52.7,83.1z"/>
			<path fill="#C5DFDC" d="M64.3,86.1H52.7c-0.4,0-0.7,0.3-0.7,0.7v0c0,0.4,0.3,0.7,0.7,0.7h11.6c0.4,0,0.7-0.3,0.7-0.7v0
				C65,86.4,64.7,86.1,64.3,86.1z"/>
			<path fill="#C5DFDC" d="M82.3,86.1H67c-0.4,0-0.7,0.3-0.7,0.7v0c0,0.4,0.3,0.7,0.7,0.7h15.2c0.4,0,0.7-0.3,0.7-0.7v0
				C83,86.4,82.7,86.1,82.3,86.1z"/>
		</g>
	</g>
</g>
</svg>
