<?xml version="1.0" encoding="utf-8"?>
<!-- Generator: Adobe Illustrator 18.0.0, SVG Export Plug-In . SVG Version: 6.00 Build 0)  -->
<!DOCTYPE svg PUBLIC "-//W3C//DTD SVG 1.1//EN" "http://www.w3.org/Graphics/SVG/1.1/DTD/svg11.dtd">
<svg version="1.1" id="Layer_1" xmlns="http://www.w3.org/2000/svg" xmlns:xlink="http://www.w3.org/1999/xlink" x="0px" y="0px"
	 viewBox="0 0 128 128" enable-background="new 0 0 128 128" xml:space="preserve">
<g>
	<circle fill="#3FA3DB" cx="64" cy="64" r="64"/>
	<path fill="#337CBF" d="M128,63.1l-26.7-26.7L27.6,85.6l42.2,42.1C102.4,124.8,128,97.4,128,64C128,63.7,128,63.4,128,63.1z"/>
	<g>
		<path fill="#FFFFFF" d="M95.7,33.4H32.3c-3.6,0-6.5,2.9-6.5,6.5v41.1c0,3.6,2.9,6.5,6.5,6.5h42.9c0.9,0,1.7,0.3,2.3,0.9l11.3,11.3
			c1.7,1.7,4.7,0.5,4.7-1.9V90c0-1.3,1.1-2.4,2.4-2.4l0,0c3.6,0,6.5-2.9,6.5-6.5V39.9C102.3,36.3,99.3,33.4,95.7,33.4z"/>
		<path fill="#EFB395" d="M82.2,66.9c0.9-0.5,1.4-1.4,1.4-2.5c0-0.8-0.3-1.5-0.9-2.1c-0.3-0.3-0.2-0.9,0.2-1.1
			c0.9-0.5,1.5-1.5,1.5-2.7c-0.1-1.6-1.5-2.8-3.1-2.8H66.7c-1,0-1.7-1.1-1.2-2C67.6,49.7,68,46,68,46c0.2-5.7-2.7-6.5-4.7-6.3
			c-0.9,0.1-1.6,0.9-1.4,1.8c0.3,1.5,0.1,3.1-0.2,4.4c-0.4,1.6-1.4,2.9-2.7,3.8c-3.2,2-4.7,4.4-5.4,6v20.5c0,1.5,1.2,2.6,2.6,2.6
			h22.9c1.5,0,2.8-1,3-2.5c0.1-1-0.2-1.9-0.8-2.5c-0.3-0.4-0.3-0.9,0.2-1.2c0.9-0.5,1.4-1.4,1.4-2.5c0-0.8-0.3-1.5-0.9-2.1
			C81.7,67.7,81.8,67.1,82.2,66.9z"/>
		<rect x="51.3" y="55.6" fill="#DE9F75" width="2.1" height="20.9"/>
		<path fill="#535E6F" d="M42.9,78.9h7c0.8,0,1.4-0.6,1.4-1.4V54.7c0-0.8-0.6-1.4-1.4-1.4h-7c-0.8,0-1.4,0.6-1.4,1.4v22.9
			C41.5,78.3,42.2,78.9,42.9,78.9z"/>
		<circle fill="#CED4DF" cx="46.4" cy="75" r="2.2"/>
	</g>
</g>
</svg>
