<?xml version="1.0" encoding="utf-8"?>
<!-- Generator: Adobe Illustrator 18.0.0, SVG Export Plug-In . SVG Version: 6.00 Build 0)  -->
<!DOCTYPE svg PUBLIC "-//W3C//DTD SVG 1.1//EN" "http://www.w3.org/Graphics/SVG/1.1/DTD/svg11.dtd">
<svg version="1.1" id="Layer_1" xmlns="http://www.w3.org/2000/svg" xmlns:xlink="http://www.w3.org/1999/xlink" x="0px" y="0px"
	 viewBox="0 0 128 128" enable-background="new 0 0 128 128" xml:space="preserve">
<g>
	<circle fill="#D9B9A8" cx="64" cy="64" r="64"/>
	<path fill="#D6AB9A" d="M128,64c0-6-0.9-11.9-2.4-17.4l-17.5-17.5L94,39.8L73.1,34L63,35.4l8,8l-1.4,1.8l-12-12l-10,22.3l1.6,1.6
		L35.4,72.2l6.9,6.9L19.5,96.3l30,30c4.6,1.1,9.5,1.7,14.5,1.7C99.3,128,128,99.3,128,64z"/>
	<g>
		<path fill="#535E6F" d="M60,74.3c3.7,0,6.8-2.9,6.8-6.6c0,0,0,0,0-0.1c0-7.7-7.5-11.2-16.6-11.2c-9.2,0-16.6,3.6-16.6,11.2
			c0,0,0,0,0,0.1c0,3.7,3.1,6.6,6.8,6.6H60z"/>
		<polygon fill="#0095CF" points="51.8,63.1 53.7,60.1 46.7,60.1 48.6,63.1 		"/>
		<polygon fill="#0BB6EA" points="53.4,74.3 51.8,63.1 48.6,63.1 47,74.3 		"/>
		<polygon fill="#535E6F" points="57,55.6 43.3,55.6 50.2,60.1 		"/>
		<path fill="#C17E5D" d="M53.9,49.1h-3.7h-3.7c0,0-0.4,3.7-2.3,7l6,3.9l6-3.9C54.3,52.9,53.9,49.1,53.9,49.1z"/>
		<g>
			<polygon fill="#616B77" points="57,55.6 58.2,57.8 53.4,63.4 50.2,60.1 			"/>
			<polygon fill="#616B77" points="43.3,55.6 42.1,57.8 46.9,63.4 50.2,60.1 			"/>
		</g>
		<path fill="#DE9F75" d="M60.4,42.4c-0.3-0.3-0.8-0.4-1.3-0.2c0-0.4,0-0.7,0-1.1c0-5.8-4-8-8.9-8c-4.9,0-8.9,2.1-8.9,8
			c0,0.3,0,0.7,0,1.1c-0.5-0.1-1-0.1-1.3,0.2c-0.7,0.6-0.5,2.1,0.5,3.3c0.6,0.7,1.3,1.1,1.9,1.2c1.5,4,4.4,7.3,7.8,7.3
			c3.3,0,6.2-3.4,7.8-7.3c0.6-0.1,1.3-0.5,1.9-1.2C60.8,44.5,61.1,43.1,60.4,42.4z"/>
		<path fill="#535E6F" d="M50.2,30.6c-5.6,0-10.2,3.1-10.2,9.2c0,0.8,0.1,1.6,0.2,2.4c0.3-0.2,0.7-0.2,1.1-0.1c0-0.4,0-0.7,0-1.1
			c0-1.3,0.2-2.4,0.6-3.4c0.5-1.4,2.2-2,3.5-1.2c1.1,0.7,2.9,1.1,4.9,1.1c2,0,3.7-0.4,4.9-1.1c1.3-0.7,2.9-0.1,3.5,1.2
			c0.4,1,0.6,2.1,0.6,3.4c0,0.3,0,0.7,0,1.1c0.4-0.1,0.8-0.1,1.1,0.1c0.2-0.8,0.2-1.6,0.2-2.4C60.3,33.8,55.8,30.6,50.2,30.6z"/>
		<path fill="#535E6F" d="M94.1,99.2c3.7,0,6.8-2.9,6.8-6.6c0,0,0,0,0-0.1c0-7.7-7.5-11.2-16.6-11.2c-9.2,0-16.6,3.6-16.6,11.2
			c0,0,0,0,0,0.1c0,3.7,3.1,6.6,6.8,6.6H94.1z"/>
		<polygon fill="#F7AF19" points="85.8,88 87.7,85 80.7,85 82.6,88 		"/>
		<polygon fill="#FFCC04" points="87.4,99.2 85.8,88 82.6,88 81,99.2 		"/>
		<polygon fill="#535E6F" points="91.1,80.5 77.4,80.5 84.2,85 		"/>
		<path fill="#C17E5D" d="M88,74.1h-3.7h-3.7c0,0-0.4,3.7-2.3,7l6,3.9l6-3.9C88.4,77.8,88,74.1,88,74.1z"/>
		<g>
			<polygon fill="#616B77" points="91.1,80.5 92.3,82.8 87.5,88.4 84.2,85 			"/>
			<polygon fill="#616B77" points="77.4,80.5 76.1,82.8 81,88.4 84.2,85 			"/>
		</g>
		<path fill="#DE9F75" d="M94.4,67.4c-0.3-0.3-0.8-0.4-1.3-0.2c0-0.4,0-0.7,0-1.1c0-5.8-4-8-8.9-8c-4.9,0-8.9,2.1-8.9,8
			c0,0.3,0,0.7,0,1.1c-0.5-0.1-1-0.1-1.3,0.2c-0.7,0.6-0.5,2.1,0.5,3.3c0.6,0.7,1.3,1.1,1.9,1.2c1.5,4,4.4,7.3,7.8,7.3
			c3.3,0,6.2-3.4,7.8-7.3c0.6-0.1,1.3-0.5,1.9-1.2C94.9,69.5,95.1,68,94.4,67.4z"/>
		<path fill="#535E6F" d="M84.2,55.6c-5.6,0-10.2,3.1-10.2,9.2c0,0.8,0.1,1.6,0.2,2.4c0.3-0.2,0.7-0.2,1.1-0.1c0-0.4,0-0.7,0-1.1
			c0-1.3,0.2-2.4,0.6-3.4c0.5-1.4,2.2-2,3.5-1.2c1.1,0.7,2.9,1.1,4.9,1.1c2,0,3.7-0.4,4.9-1.1c1.3-0.7,2.9-0.1,3.5,1.2
			c0.4,1,0.6,2.1,0.6,3.4c0,0.3,0,0.7,0,1.1c0.4-0.1,0.8-0.1,1.1,0.1c0.2-0.8,0.2-1.6,0.2-2.4C94.4,58.7,89.9,55.6,84.2,55.6z"/>
		<path fill="#FFFFFF" d="M107,28.8H67.4c-1,0-1.8,0.8-1.8,1.8V34L63,35.4l2.6,1.4v7.4c0,1,0.8,1.8,1.8,1.8H107c1,0,1.8-0.8,1.8-1.8
			V30.6C108.9,29.6,108.1,28.8,107,28.8z"/>
		<path fill="#FFFFFF" d="M62.5,84.9v-3.4c0-1-0.8-1.8-1.8-1.8H21c-1,0-1.8,0.8-1.8,1.8v13.6c0,1,0.8,1.8,1.8,1.8h39.7
			c1,0,1.8-0.8,1.8-1.8v-7.4l2.6-1.4L62.5,84.9z"/>
	</g>
</g>
</svg>
