<?xml version="1.0" encoding="utf-8"?>
<!-- Generator: Adobe Illustrator 19.1.1, SVG Export Plug-In . SVG Version: 6.00 Build 0)  -->
<svg version="1.1" id="Layer_1" xmlns="http://www.w3.org/2000/svg" xmlns:xlink="http://www.w3.org/1999/xlink" x="0px" y="0px"
	 width="90px" height="90px" viewBox="0 0 90 90" style="enable-background:new 0 0 90 90;" xml:space="preserve">
<style type="text/css">
	.st0{fill:#9DBEC9;}
	.st1{fill:#5B6875;}
	.st2{fill:#FFFFFF;}
	.st3{fill:none;stroke:#232E38;stroke-width:2;stroke-linecap:round;stroke-linejoin:round;stroke-miterlimit:10;}
	.st4{fill:#DAE3E6;}
	.st5{fill:#F28598;stroke:#472C44;stroke-width:2;stroke-linejoin:round;stroke-miterlimit:10;}
	.st6{fill:#83AEED;stroke:#212A35;stroke-width:2;stroke-linecap:round;stroke-linejoin:round;stroke-miterlimit:10;}
	.st7{fill:#F28598;}
	.st8{fill:#83AEED;}
	.st9{fill:#FFCC00;}
	.st10{fill:none;stroke:#383128;stroke-width:2;stroke-miterlimit:10;}
	.st11{fill:none;stroke:#472C44;stroke-width:2;stroke-linecap:round;stroke-linejoin:round;stroke-miterlimit:10;}
	.st12{fill:none;stroke:#212A35;stroke-width:2;stroke-miterlimit:10;}
	.st13{fill:#EFEAE1;}
	.st14{fill:none;stroke:#383128;stroke-width:2;stroke-linecap:round;stroke-linejoin:round;stroke-miterlimit:10;}
	.st15{fill:#859FE5;stroke:#2A2135;stroke-width:2;stroke-linecap:round;stroke-linejoin:round;stroke-miterlimit:10;}
	.st16{fill:none;stroke:#2A2135;stroke-width:2;stroke-linecap:round;stroke-linejoin:round;stroke-miterlimit:10;}
	.st17{fill:#81D4EF;}
	.st18{fill:none;stroke:#505070;stroke-width:2;stroke-linecap:round;stroke-linejoin:round;stroke-miterlimit:10;}
	.st19{fill:#F0EFD2;}
	.st20{fill:#DD5089;}
	.st21{fill:#EFDCD2;}
	.st22{fill:#AA8566;}
	.st23{fill:#F0EEAF;}
	.st24{fill:#76D03B;}
	.st25{fill:#E8D69B;}
	.st26{fill:#CFB095;}
	.st27{fill:#96765A;}
	.st28{fill:#C49A76;}
	.st29{fill:none;stroke:#2B3F15;stroke-width:2;stroke-linecap:round;stroke-linejoin:round;stroke-miterlimit:10;}
	.st30{fill:#F1C40E;}
	.st31{fill:#ED655F;}
	.st32{fill:#EFEAE1;stroke:#383128;stroke-width:2;stroke-linecap:round;stroke-linejoin:round;stroke-miterlimit:10;}
	.st33{fill:#82DD47;}
	.st34{fill:#D1CDC5;}
	.st35{fill:none;stroke:#0E1011;stroke-width:2;stroke-linecap:round;stroke-linejoin:round;stroke-miterlimit:10;}
	.st36{fill:#A6ACB2;}
	.st37{fill:#859FE5;}
	.st38{fill:none;stroke:#212A35;stroke-width:2;stroke-linecap:round;stroke-linejoin:round;stroke-miterlimit:10;}
	.st39{fill:none;stroke:#2B3828;stroke-width:2;stroke-linecap:round;stroke-linejoin:round;stroke-miterlimit:10;}
	.st40{fill:#FFFFFF;stroke:#232E38;stroke-width:2;stroke-linecap:round;stroke-linejoin:round;stroke-miterlimit:10;}
	.st41{fill:#D5DCE0;}
	.st42{fill:#CFEEFF;stroke:#232E38;stroke-width:2;stroke-linecap:round;stroke-linejoin:round;stroke-miterlimit:10;}
	.st43{fill:#D5DCE0;stroke:#232E38;stroke-width:2;stroke-linecap:round;stroke-linejoin:round;stroke-miterlimit:10;}
	.st44{fill:#BAEEFF;stroke:#232E38;stroke-width:2;stroke-linecap:round;stroke-linejoin:round;stroke-miterlimit:10;}
	.st45{fill:#F7E8E1;stroke:#232E38;stroke-width:2;stroke-linecap:round;stroke-linejoin:round;stroke-miterlimit:10;}
	.st46{fill:#469BAF;stroke:#232E38;stroke-width:2;stroke-linecap:round;stroke-linejoin:round;stroke-miterlimit:10;}
	.st47{fill:#81D4EF;stroke:#232E38;stroke-width:2;stroke-linecap:round;stroke-linejoin:round;stroke-miterlimit:10;}
	
		.st48{fill-rule:evenodd;clip-rule:evenodd;fill:#E45544;stroke:#3F291E;stroke-width:2;stroke-linecap:round;stroke-linejoin:round;stroke-miterlimit:10;}
	.st49{fill:#ABCFD3;}
	.st50{fill:#83ADB3;}
	.st51{fill:#63AD31;}
</style>
<g>
	<circle class="st4" cx="45" cy="45" r="45"/>
	<path class="st7" d="M34.1199989,52.3901253l0.0300026,0.0999985c-3.0100021,0.9700012-5.3000011,2.4300003-7.0100021,4.1500015
		c-0.0999985,0.0999985-0.1899986,0.2200012-0.2699986,0.3400002L26.75,56.9701271
		c-0.4099998,0.0199966-0.8199997,0.0299988-1.25,0.0299988c-4.0499992,0-7.0799999-0.75-8.7800007-1.3100014
		c-0.7399998-0.2399979-0.9799995-1.7299995-0.3999996-2.5099983c1.1700001-1.5499992,2.7800007-2.8400002,5.0900002-3.4700012
		c1.7900009-0.5900002,1.1399994-2.4199982,1.1399994-4.1599998c-2.3799992,2.3400002-2.9799995-0.6399994-5.3599987,0.5499992
		c2.1899986-3.4799995,1.8799992-5.3400002,2.3799992-8.3400002c0.3500004-2.079998,1.75-5.3600006,5.960001-5.3600006
		s5.6099987,3.2800026,5.9599991,5.3600006c0.5,3,0.2000008,4.8600006,2.3799992,8.3400002
		c-2.3799992-1.1899986-2.9799995,1.7900009-5.3599987-0.5499992c0,1.7400017-0.6800003,3.5699997,1.1100006,4.1599998
		C31.5900002,50.1801262,33.0299988,51.1701241,34.1199989,52.3901253z"/>
	<path class="st8" d="M61.7799988,57.0201263c0.670002,1.1399994,0.170002,2.8199997-1.0599976,3.1199989
		C57.4799995,60.9201241,51.6699982,62.0101242,44.25,62.0101242c-7.5499992,0-13.2000008-1.0599976-16.3600006-1.8400002
		c-1.2600002-0.3099976-1.7399998-2.0499992-1.0199986-3.1899986c0.0799999-0.1199989,0.1700001-0.2400017,0.2699986-0.3400002
		c1.710001-1.7200012,4-3.1800003,7.0100021-4.1500015c0.7999992-0.2599983,1.6599998-0.4799995,2.5699997-0.6699982
		l1.1599998-0.2299995c0.6100006-0.1100006,1.0599976-0.6399994,1.0299988-1.2600021
		c-0.0299988-0.6800003-0.0299988-1.4099998-0.0200005-2.1599998c0-1.8400002-2.079998-3.7899971-2.1899986-6.2099991
		c-0.6900024-1.4300003-1.0900002-2.8600006-1.0900002-3.9599991c0-0.7200012,0.1800003-1.2000008,0.4899979-1.5100021
		c-0.1599998-0.8999977-0.3099976-1.8599968-0.4899979-2.8400002c-0.7000008-3.8999977,0.6499977-6.2799988,4.0400009-7.7999973
		c0.6299973-0.2900009,0.1599998-4.1000004,0.8499985-3.4200001c1.9399986,1.8699989,7.1199989,2.7599983,8.3699989,3.2099991
		C52.3300018,26.8701248,53.7099991,29.710125,53,33.6501236c-0.1800003,0.9800034-0.3199997,1.9400024-0.4900017,2.8400002
		C52.8199997,36.8001251,53,37.2801247,53,38.0001259c0,1.0999985-0.3899994,2.5299988-1.0800018,3.9599991
		c-0.1199989,2.420002-2.1899986,4.4900017-2.1899986,6.2099991c0,0.75,0,1.4799995-0.0299988,2.1599998
		c-0.0200005,0.6200027,0.4199982,1.1500015,1.0400009,1.2600021l1.0299988,0.2299995
		c0.3999977,0.0699997,0.7900009,0.1500015,1.1699982,0.25c3.8300018,0.8800011,6.5900002,2.5400009,8.5500031,4.5499992
		C61.6100006,56.7401237,61.7000008,56.880127,61.7799988,57.0201263z"/>
	<path class="st9" d="M73.6100006,53.4301262c0.7099991,0.7299995,0.4000015,2.1100006-0.5100021,2.329998
		c-2.1500015,0.5200005-6,1.2400017-10.9099998,1.2400017c-0.1199989,0-0.2399979,0-0.3599968,0l-0.0500031,0.0200005
		c-0.079998-0.1399994-0.1699982-0.2800026-0.2899971-0.4000015c-1.9600029-2.0099983-4.7200012-3.6699982-8.5500031-4.5499992
		l0.0699997-0.2799988c1.1500015-0.670002,2.5400009-1.2000008,4.2000008-1.5400009l0.7600021-0.1500015
		c0.4099998-0.0699997,0.6999969-0.4199982,0.6800003-0.8400002c-0.0200005-0.4499969-0.0200005-0.9300003-0.0100021-1.4199982
		c0-1.2200012-1.3800011-2.5200005-1.4500008-4.1199989c-0.4599991-0.9500008-0.7199974-1.8900032-0.7199974-2.6200027
		c0-0.4799995,0.1199989-0.7999992,0.3199997-1c-0.1100006-0.5999985-0.2000008-1.2299995-0.3199997-1.8799973
		C56,35.630127,56.9000015,34.0601273,59.1399994,33.0501251c0.420002-0.1899986,0.1100006-2.7199993,0.5699997-2.2700005
		c1.2800026,1.2400017,4.7099991,1.8400002,5.5400009,2.1300011c2.2900009,0.8100014,3.2099991,2.7000008,2.7399979,5.3100014
		c-0.1199951,0.6499977-0.2200012,1.2799988-0.3299942,1.8799973c0.2099991,0.2000008,0.3299942,0.5200005,0.3299942,1
		c0,0.7299995-0.2699966,1.670002-0.7200012,2.6200027c-0.0799942,1.5999985-1.4499969,2.9799995-1.4499969,4.1199989
		c0,0.4899979,0,0.9700012-0.0199966,1.4199982c-0.0100021,0.420002,0.2799988,0.7700005,0.6899948,0.8400002l0.6800003,0.1500015
		C70.1100006,50.7801247,72.1900024,51.9701271,73.6100006,53.4301262z"/>
	<path class="st10" d="M61.8300018,57.0001259c0.1199989,0,0.2399979,0,0.3599968,0
		c4.9099998,0,8.7599983-0.7200012,10.9099998-1.2400017c0.9100037-0.2199974,1.2200012-1.5999985,0.5100021-2.329998
		c-1.4199982-1.4599991-3.5-2.6500015-6.4400024-3.1800003l-0.6800003-0.1500015
		c-0.409996-0.0699997-0.6999969-0.4199982-0.6899948-0.8400002c0.0199966-0.4499969,0.0199966-0.9300003,0.0199966-1.4199982
		c0-1.1399994,1.3700027-2.5200005,1.4499969-4.1199989c0.4500046-0.9500008,0.7200012-1.8900032,0.7200012-2.6200027
		c0-0.4799995-0.1199951-0.7999992-0.3299942-1c0.109993-0.5999985,0.2099991-1.2299995,0.3299942-1.8799973
		c0.4700012-2.6100006-0.4499969-4.5-2.7399979-5.3100014c-0.8300018-0.2900009-4.2599983-0.8899994-5.5400009-2.1300011
		c-0.4599991-0.4499989-0.1499977,2.0800018-0.5699997,2.2700005C56.9000015,34.0601273,56,35.630127,56.4700012,38.2201271
		c0.1199989,0.6499977,0.2099991,1.2799988,0.3199997,1.8799973c-0.2000008,0.2000008-0.3199997,0.5200005-0.3199997,1
		c0,0.7299995,0.2599983,1.670002,0.7199974,2.6200027c0.0699997,1.5999985,1.4500008,2.8999977,1.4500008,4.1199989
		c-0.0099983,0.4899979-0.0099983,0.9700012,0.0100021,1.4199982c0.0199966,0.420002-0.2700005,0.7700005-0.6800003,0.8400002
		l-0.7600021,0.1500015c-1.6599998,0.3400002-3.0499992,0.8699989-4.2000008,1.5400009"/>
	<path class="st11" d="M34.1199989,52.3901253c-1.0900002-1.2200012-2.5299988-2.2099991-4.4999981-2.6800003
		c-1.7900009-0.5900002-1.1100006-2.4199982-1.1100006-4.1599998c2.3799992,2.3400002,2.9799995-0.6399994,5.3599987,0.5499992
		c-2.1799984-3.4799995-1.8799992-5.3400002-2.3799992-8.3400002c-0.3500004-2.079998-1.75-5.3600006-5.9599991-5.3600006
		s-5.6100006,3.2800026-5.960001,5.3600006c-0.5,3-0.1900005,4.8600006-2.3799992,8.3400002
		c2.3799992-1.1899986,2.9799995,1.7900009,5.3599987-0.5499992c0,1.7400017,0.6500015,3.5699997-1.1399994,4.1599998
		c-2.3099995,0.6300011-3.9200001,1.920002-5.0900002,3.4700012c-0.5799999,0.7799988-0.3400002,2.2700005,0.3999996,2.5099983
		c1.7000008,0.5600014,4.7300014,1.3100014,8.7800007,1.3100014c0.4300003,0,0.8400002-0.0100021,1.25-0.0299988"/>
	<path class="st12" d="M52.9399986,52.0701256c-0.3799973-0.0999985-0.7700005-0.1800003-1.1699982-0.25l-1.0299988-0.2299995
		c-0.6200027-0.1100006-1.0600014-0.6399994-1.0400009-1.2600021c0.0299988-0.6800003,0.0299988-1.4099998,0.0299988-2.1599998
		c0-1.7199974,2.0699997-3.7899971,2.1899986-6.2099991C52.6100006,40.5301247,53,39.1001244,53,38.0001259
		c0-0.7200012-0.1800003-1.2000008-0.4900017-1.5100021C52.6800003,35.590126,52.8199997,34.630127,53,33.6501236
		c0.7099991-3.9399986-0.6699982-6.7799988-4.1300011-8.0099983c-1.25-0.4500008-6.4300003-1.3400002-8.3699989-3.2099991
		c-0.6899986-0.6800003-0.2200012,3.1299992-0.8499985,3.4200001c-3.3900032,1.5199986-4.7400017,3.8999996-4.0400009,7.7999973
		c0.1800003,0.9800034,0.329998,1.9400024,0.4899979,2.8400002c-0.3099976,0.3100014-0.4899979,0.7900009-0.4899979,1.5100021
		c0,1.0999985,0.3999977,2.5299988,1.0900002,3.9599991c0.1100006,2.420002,2.1899986,4.3699989,2.1899986,6.2099991
		c-0.0099983,0.75-0.0099983,1.4799995,0.0200005,2.1599998c0.0299988,0.6200027-0.4199982,1.1500015-1.0299988,1.2600021
		l-1.1599998,0.2299995c-0.9099998,0.1899986-1.7700005,0.4099998-2.5699997,0.6699982
		c-3.0100021,0.9700012-5.3000011,2.4300003-7.0100021,4.1500015c-0.0999985,0.0999985-0.1899986,0.2200012-0.2699986,0.3400002
		c-0.7200012,1.1399994-0.2400017,2.8800011,1.0199986,3.1899986c3.1599998,0.7800026,8.8100014,1.8400002,16.3600006,1.8400002
		c7.4199982,0,13.2299995-1.0900002,16.4700012-1.8699989c1.2299995-0.2999992,1.7299995-1.9799995,1.0599976-3.1199989
		c-0.079998-0.1399994-0.1699982-0.2800026-0.2899971-0.4000015C59.5299988,54.6101265,56.7700005,52.9501266,52.9399986,52.0701256
		z"/>
</g>
</svg>
