<?xml version="1.0" encoding="utf-8"?>
<!-- Generator: Adobe Illustrator 18.0.0, SVG Export Plug-In . SVG Version: 6.00 Build 0)  -->
<!DOCTYPE svg PUBLIC "-//W3C//DTD SVG 1.1//EN" "http://www.w3.org/Graphics/SVG/1.1/DTD/svg11.dtd">
<svg version="1.1" id="Layer_1" xmlns="http://www.w3.org/2000/svg" xmlns:xlink="http://www.w3.org/1999/xlink" x="0px" y="0px"
	 viewBox="0 0 128 128" enable-background="new 0 0 128 128" xml:space="preserve">
<g>
	<circle fill="#C5DFDC" cx="64" cy="64" r="64"/>
	<path fill="#94CECD" d="M96.5,34.5c-2.9-3.4-7.1-5.5-11.9-5.5C76,29,69,36,69,44.6c0,4.1,1.6,7.8,4.1,10.5l-3,2.6l-7.4-7.4
		l-11.3,0.8L31,50.7l-8.5,11.3l1.8,14.1l-0.6,13.2L62.3,128c0.6,0,1.1,0,1.7,0c35.3,0,64-28.7,64-64c0-2.2-0.1-4.4-0.3-6.6
		l-26.8-26.8L96.5,34.5z"/>
	<g>
		<g>
			<path fill="#535E6F" d="M105.7,45.3l-2.4-0.7c-0.3-0.1-0.5-0.4-0.6-0.7c-0.1-2.1-0.6-4.1-1.4-6c-0.1-0.3,0-0.6,0.2-0.9l1.8-1.7
				c0.3-0.3,0.3-0.7,0.1-1l-2.6-3.7c-0.2-0.3-0.7-0.4-1-0.2l-2.2,1.2c-0.3,0.2-0.6,0.1-0.9-0.1c-1.5-1.4-3.3-2.5-5.2-3.3
				c-0.3-0.1-0.5-0.4-0.5-0.7l0.1-2.5c0-0.4-0.3-0.7-0.7-0.8L86,23.4c-0.4-0.1-0.8,0.2-0.9,0.5l-0.7,2.4c-0.1,0.3-0.4,0.5-0.7,0.6
				c-2.1,0.1-4.1,0.6-6,1.4c-0.3,0.1-0.6,0-0.9-0.2l-1.7-1.8c-0.3-0.3-0.7-0.3-1-0.1l-3.7,2.6c-0.3,0.2-0.4,0.7-0.2,1l1.2,2.2
				c0.2,0.3,0.1,0.6-0.1,0.9c-1.4,1.5-2.5,3.3-3.3,5.2c-0.1,0.3-0.4,0.5-0.7,0.5l-2.5-0.1c-0.4,0-0.7,0.3-0.8,0.7l-0.8,4.5
				c-0.1,0.4,0.2,0.8,0.5,0.9l2.4,0.7c0.3,0.1,0.5,0.4,0.6,0.7c0.1,2.1,0.6,4.1,1.4,6c0.1,0.3,0,0.6-0.2,0.9l-1.8,1.7
				c-0.3,0.3-0.3,0.7-0.1,1l2.6,3.7c0.2,0.3,0.7,0.4,1,0.2l2.2-1.2c0.3-0.2,0.6-0.1,0.9,0.1c1.5,1.4,3.3,2.5,5.2,3.3
				c0.3,0.1,0.5,0.4,0.5,0.7l-0.1,2.5c0,0.4,0.3,0.7,0.7,0.8l4.5,0.8c0.4,0.1,0.8-0.2,0.9-0.5l0.7-2.4c0.1-0.3,0.4-0.5,0.7-0.6
				c2.1-0.1,4.1-0.6,6-1.4c0.3-0.1,0.6,0,0.9,0.2l1.7,1.8c0.3,0.3,0.7,0.3,1,0.1L99,61c0.3-0.2,0.4-0.7,0.2-1l-1.2-2.2
				c-0.2-0.3-0.1-0.6,0.1-0.9c1.4-1.5,2.5-3.3,3.3-5.2c0.1-0.3,0.4-0.5,0.7-0.5l2.5,0.1c0.4,0,0.7-0.3,0.8-0.7l0.8-4.5
				C106.3,45.8,106.1,45.4,105.7,45.3z"/>
			<circle fill="#444D5B" cx="84.7" cy="44.9" r="11.5"/>
			<circle fill="#C5DFDC" cx="84.7" cy="44.9" r="8.1"/>
		</g>
		<g>
			<path fill="#0BB6EA" d="M67.9,63.8l-3.2-0.4c-0.4-0.1-0.8-0.4-0.9-0.8c-0.6-2.6-1.6-5.1-3-7.3c-0.2-0.4-0.2-0.8,0-1.2l1.9-2.5
				c0.3-0.4,0.3-1-0.1-1.3l-4.2-4.2c-0.4-0.4-0.9-0.4-1.3-0.1L54.8,48c-0.3,0.3-0.8,0.3-1.2,0c-2.2-1.4-4.6-2.4-7.3-3
				c-0.4-0.1-0.7-0.4-0.8-0.9L45.1,41c-0.1-0.5-0.5-0.9-1-0.9h-5.9c-0.5,0-0.9,0.4-1,0.9l-0.4,3.2c-0.1,0.4-0.4,0.8-0.8,0.9
				c-2.6,0.6-5.1,1.6-7.3,3c-0.4,0.2-0.8,0.2-1.2,0l-2.5-1.9c-0.4-0.3-1-0.3-1.3,0.1l-4.2,4.2c-0.4,0.4-0.4,0.9-0.1,1.3l1.9,2.5
				c0.3,0.3,0.3,0.8,0,1.2c-1.4,2.2-2.4,4.6-3,7.3c-0.1,0.4-0.4,0.7-0.9,0.8l-3.2,0.4c-0.5,0.1-0.9,0.5-0.9,1v5.9
				c0,0.5,0.4,0.9,0.9,1l3.2,0.4c0.4,0.1,0.8,0.4,0.9,0.8c0.6,2.6,1.6,5.1,3,7.3c0.2,0.4,0.2,0.8,0,1.2l-1.9,2.5
				c-0.3,0.4-0.3,1,0.1,1.3l4.2,4.2c0.4,0.4,0.9,0.4,1.3,0.1l2.5-1.9c0.3-0.3,0.8-0.3,1.2,0c2.2,1.4,4.6,2.4,7.3,3
				c0.4,0.1,0.7,0.4,0.8,0.9l0.4,3.2c0.1,0.5,0.5,0.9,1,0.9h5.9c0.5,0,0.9-0.4,1-0.9l0.4-3.2c0.1-0.4,0.4-0.8,0.8-0.9
				c2.6-0.6,5.1-1.6,7.3-3c0.4-0.2,0.8-0.2,1.2,0l2.5,1.9c0.4,0.3,1,0.3,1.3-0.1l4.2-4.2c0.4-0.4,0.4-0.9,0.1-1.3L61,81.4
				c-0.3-0.3-0.3-0.8,0-1.2c1.4-2.2,2.4-4.6,3-7.3c0.1-0.4,0.4-0.7,0.9-0.8l3.2-0.4c0.5-0.1,0.9-0.5,0.9-1v-5.9
				C68.8,64.3,68.4,63.9,67.9,63.8z"/>
			<path fill="#0095CF" d="M56,65.8c1.2,9.7-7,17.9-16.7,16.7c-6.6-0.8-12-6.2-12.8-12.8c-1.2-9.7,7-17.9,16.7-16.7
				C49.8,53.8,55.1,59.2,56,65.8z"/>
			<path fill="#C5DFDC" d="M51.5,66c1.2,7.2-4.9,13.3-12.1,12.1c-4.4-0.7-7.9-4.2-8.6-8.6c-1.2-7.2,4.9-13.3,12.1-12.1
				C47.3,58.1,50.8,61.7,51.5,66z"/>
		</g>
		<path fill="#FFFFFF" d="M101,85.5l-1.8-0.6c-0.2-0.1-0.4-0.3-0.4-0.5c-0.1-1.6-0.5-3.2-1.1-4.6c-0.1-0.2,0-0.5,0.1-0.7l1.4-1.3
			c0.2-0.2,0.3-0.5,0.1-0.8l-2.1-2.9c-0.2-0.2-0.5-0.3-0.8-0.2l-1.7,0.9c-0.2,0.1-0.5,0.1-0.7-0.1c-1.2-1-2.5-1.9-4-2.5
			c-0.2-0.1-0.4-0.3-0.4-0.6l0.1-1.9c0-0.3-0.2-0.6-0.5-0.6l-3.5-0.6c-0.3-0.1-0.6,0.1-0.7,0.4l-0.6,1.8c-0.1,0.2-0.3,0.4-0.5,0.4
			c-1.6,0.1-3.2,0.5-4.6,1.1c-0.2,0.1-0.5,0-0.7-0.1l-1.3-1.4c-0.2-0.2-0.5-0.3-0.8-0.1l-2.9,2.1c-0.2,0.2-0.3,0.5-0.2,0.8l0.9,1.7
			c0.1,0.2,0.1,0.5-0.1,0.7c-1,1.2-1.9,2.5-2.5,4c-0.1,0.2-0.3,0.4-0.6,0.4l-1.9-0.1c-0.3,0-0.6,0.2-0.6,0.5l-0.6,3.5
			c-0.1,0.3,0.1,0.6,0.4,0.7l1.8,0.6c0.2,0.1,0.4,0.3,0.4,0.5c0.1,1.6,0.5,3.2,1.1,4.6c0.1,0.2,0,0.5-0.1,0.7l-1.4,1.3
			c-0.2,0.2-0.3,0.5-0.1,0.8l2.1,2.9c0.2,0.2,0.5,0.3,0.8,0.2l1.7-0.9c0.2-0.1,0.5-0.1,0.7,0.1c1.2,1,2.5,1.9,4,2.5
			c0.2,0.1,0.4,0.3,0.4,0.6l-0.1,1.9c0,0.3,0.2,0.6,0.5,0.6l3.5,0.6c0.3,0.1,0.6-0.1,0.7-0.4l0.6-1.8c0.1-0.2,0.3-0.4,0.5-0.4
			c1.6-0.1,3.2-0.5,4.6-1.1c0.2-0.1,0.5,0,0.7,0.1l1.3,1.4c0.2,0.2,0.5,0.3,0.8,0.1l2.9-2.1c0.2-0.2,0.3-0.5,0.2-0.8l-0.9-1.7
			c-0.1-0.2-0.1-0.5,0.1-0.7c1-1.2,1.9-2.5,2.5-4c0.1-0.2,0.3-0.4,0.6-0.4l1.9,0.1c0.3,0,0.6-0.2,0.6-0.5l0.6-3.5
			C101.4,85.8,101.2,85.6,101,85.5z"/>
		<circle fill="#E5E8EC" cx="84.7" cy="85.1" r="8.9"/>
		<circle fill="#C5DFDC" cx="84.7" cy="85.1" r="6.3"/>
	</g>
</g>
</svg>
