<?xml version="1.0" encoding="utf-8"?>
<!-- Generator: Adobe Illustrator 18.0.0, SVG Export Plug-In . SVG Version: 6.00 Build 0)  -->
<!DOCTYPE svg PUBLIC "-//W3C//DTD SVG 1.1//EN" "http://www.w3.org/Graphics/SVG/1.1/DTD/svg11.dtd">
<svg version="1.1" id="Layer_1" xmlns="http://www.w3.org/2000/svg" xmlns:xlink="http://www.w3.org/1999/xlink" x="0px" y="0px"
	 viewBox="0 0 128 128" enable-background="new 0 0 128 128" xml:space="preserve">
<g>
	<circle fill="#1E67AF" cx="64" cy="64" r="64"/>
	<path fill="#29509B" d="M128,64c0-1.3,0-2.5-0.1-3.7L90,22.4l-2.4,6.3L54.8,51.6L19.6,78.5l49.3,49.3C101.9,125.3,128,97.7,128,64z
		"/>
	<g>
		<g>
			<polygon fill="#444D5B" points="78.3,37.5 76.6,35.1 34.1,63.6 34.9,64.9 33.8,65.9 64.5,98.8 66.7,96.8 37.2,65.1 			"/>
			<rect x="48.9" y="62.5" fill="#444D5B" width="52.1" height="3"/>
		</g>
		<g>
			<circle fill="#FFFFFF" cx="34.9" cy="64" r="21.1"/>
		</g>
		<g>
			<path fill="#535E6F" d="M34.9,85.1c6.1,0,11.5-2.5,15.4-6.6c-2.5-4.3-8.4-6.4-15.4-6.4c-7,0-12.9,2.1-15.4,6.4
				C23.4,82.6,28.9,85.1,34.9,85.1z"/>
		</g>
		<g>
			<polygon fill="#0095CF" points="36.5,78.8 38.4,75.7 31.4,75.7 33.3,78.8 			"/>
		</g>
		<g>
			<path fill="#0BB6EA" d="M32.4,85c0.8,0.1,1.6,0.1,2.5,0.1c0.8,0,1.7-0.1,2.5-0.1l-0.9-6.2h-3.2L32.4,85z"/>
		</g>
		<g>
			<polygon fill="#535E6F" points="41.8,71.3 28.1,71.3 34.9,75.7 			"/>
		</g>
		<g>
			<path fill="#F7AF19" d="M38.6,64.9h-3.7h-3.7c0,0-0.4,3.7-2.3,7l6,3.9l6-3.9C39,68.6,38.6,64.9,38.6,64.9z"/>
		</g>
		<g>
			<polygon fill="#616B77" points="41.8,71.3 43,73.5 38.1,79.1 34.9,75.7 			"/>
		</g>
		<g>
			<polygon fill="#616B77" points="28.1,71.3 26.9,73.5 31.7,79.1 34.9,75.7 			"/>
		</g>
		<g>
			<path fill="#FFCC04" d="M45.1,58.2c-0.3-0.3-0.8-0.4-1.3-0.2c0-0.4,0-0.7,0-1.1c0-5.8-4-7.9-8.9-7.9s-8.9,2.1-8.9,7.9
				c0,0.3,0,0.7,0,1.1c-0.5-0.1-1-0.1-1.3,0.2c-0.7,0.6-0.5,2.1,0.5,3.3c0.6,0.7,1.3,1.1,1.9,1.2c1.5,4,4.4,7.3,7.7,7.3
				s6.2-3.3,7.7-7.3c0.6-0.1,1.3-0.5,1.9-1.2C45.5,60.3,45.8,58.8,45.1,58.2z"/>
		</g>
		<g>
			<path fill="#535E6F" d="M34.9,46.5c-5.6,0-10.1,3.1-10.1,9.2c0,0.8,0.1,1.6,0.2,2.4c0.3-0.2,0.7-0.2,1.1-0.1c0-0.4,0-0.7,0-1.1
				c0-1.3,0.2-2.4,0.6-3.4c0.5-1.4,2.2-2,3.5-1.2c1.1,0.7,2.9,1.1,4.8,1.1c2,0,3.7-0.4,4.8-1.1c1.3-0.7,2.9-0.1,3.5,1.2
				c0.4,1,0.6,2.1,0.6,3.4c0,0.3,0,0.7,0,1.1c0.4-0.1,0.8-0.1,1.1,0.1c0.2-0.8,0.2-1.6,0.2-2.4C45.1,49.6,40.5,46.5,34.9,46.5z"/>
		</g>
		<g>
			<circle fill="#FFFFFF" cx="77.6" cy="34" r="17"/>
		</g>
		<g>
			<circle fill="#FFFFFF" cx="65.6" cy="96.8" r="14.2"/>
		</g>
		<g>
			<circle fill="#FFFFFF" cx="102.4" cy="64" r="11.8"/>
		</g>
		<g>
			<path fill="#EA4A8D" d="M108.8,62.2h-4.6v-4.6c0-1-0.8-1.8-1.8-1.8c-1,0-1.8,0.8-1.8,1.8v4.6H96c-1,0-1.8,0.8-1.8,1.8
				c0,1,0.8,1.8,1.8,1.8h4.6v4.6c0,1,0.8,1.8,1.8,1.8c1,0,1.8-0.8,1.8-1.8v-4.6h4.6c1,0,1.8-0.8,1.8-1.8S109.7,62.2,108.8,62.2z"/>
		</g>
		<g>
			<path fill="#535E6F" d="M77.6,21.7L77.6,21.7c-4.4,0-7.9,3.5-7.9,7.9V37c0,1.1,0.9,2,2,2h11.9c1.1,0,2-0.9,2-2v-7.4
				C85.5,25.2,81.9,21.7,77.6,21.7z"/>
		</g>
		<g>
			<path fill="#A3499A" d="M77.6,51c4.5,0,8.5-1.7,11.6-4.5c-1.2-4.5-5.9-5.4-11.6-5.4S67.2,42,66,46.5C69.1,49.3,73.1,51,77.6,51z"
				/>
		</g>
		<g>
			<path fill="#D6AB9A" d="M81.7,41.3C81.7,41.3,81.7,41.3,81.7,41.3c-1.3-0.2-2.2-1.2-2.3-2.4c0-0.6,0-1.2,0-1.7h-3.8
				c0,0.5,0.1,1.1,0,1.7c-0.1,1.3-1,2.3-2.3,2.4c0,0,0,0,0,0c0,0.2,0,0.4,0,0.6c0,2.3,1.9,4.2,4.2,4.2c2.3,0,4.2-1.9,4.2-4.2
				C81.8,41.7,81.8,41.5,81.7,41.3z"/>
		</g>
		<g>
			<path fill="#D9B9A8" d="M83.9,30.3V33c0,1.7-0.7,3.3-1.9,4.5c-1.1,1.1-2.7,1.9-4.5,1.9c-3.5,0-6.3-2.8-6.3-6.3v-2.1
				c1.8-0.4,3.9-1.3,5.9-2.7c1.5-1,2.7-2.2,3.6-3.4C82.7,25.9,83.9,28,83.9,30.3z"/>
		</g>
		<g>
			<path fill="#D9B9A8" d="M71.3,30.9c-0.6,0-1.1,0.5-1.1,1.1c0,0.6,0.5,1.1,1.1,1.1V30.9z"/>
		</g>
		<g>
			<path fill="#D6AB9A" d="M71.2,31.5c-0.3,0-0.5,0.2-0.5,0.5c0,0.3,0.2,0.5,0.5,0.5V31.5z"/>
		</g>
		<g>
			<path fill="#D9B9A8" d="M83.9,30.9c0.6,0,1.1,0.5,1.1,1.1c0,0.6-0.5,1.1-1.1,1.1V30.9z"/>
		</g>
		<g>
			<path fill="#D6AB9A" d="M83.9,31.5c0.3,0,0.5,0.2,0.5,0.5c0,0.3-0.2,0.5-0.5,0.5V31.5z"/>
		</g>
		<g>
			<circle fill="#535E6F" cx="79.8" cy="31.2" r="0.9"/>
		</g>
		<g>
			<circle fill="#535E6F" cx="75.4" cy="31.2" r="0.9"/>
		</g>
		<g>
			<path fill="#FFFFFF" d="M75.4,34.8c0.3,0.9,1.1,1.5,2.1,1.5s1.8-0.6,2.1-1.5H75.4z"/>
		</g>
		<g>
			<path fill="#6A5868" d="M69.3,97.6c1.1,0,2.1-0.8,2.3-2c0.1-0.5,0.2-1.1,0.2-1.6c0-7.2-2.8-7.2-6.2-7.2c-3.4,0-6.2,0-6.2,7.2
				c0,0.5,0.1,1.1,0.2,1.6c0.2,1.2,1.2,2,2.3,2H69.3z"/>
		</g>
		<path fill="#BED630" d="M65.6,111c4.2,0,8-1.8,10.6-4.8c-1.1-4.1-5.4-4.9-10.6-4.9c-5.2,0-9.5,0.8-10.6,4.9
			C57.6,109.1,61.3,111,65.6,111z"/>
		<g>
			<path fill="#D6AB9A" d="M69.3,101.5C69.3,101.5,69.3,101.5,69.3,101.5c-1.2-0.1-2-1.1-2.1-2.2c0-0.6,0-1.1,0-1.5h-3.4
				c0,0.5,0.1,1,0,1.5c-0.1,1.1-0.9,2.1-2.1,2.2c0,0,0,0,0,0c0,0.2,0,0.4,0,0.6c0,2.1,1.7,3.8,3.8,3.8c2.1,0,3.8-1.7,3.8-3.8
				C69.4,101.9,69.4,101.7,69.3,101.5z"/>
		</g>
		<path fill="#ABC437" d="M60,101.9c0,0.1,0,0.1,0,0.2c0,3.1,2.5,5.6,5.6,5.6c3.1,0,5.6-2.5,5.6-5.6c0-0.1,0-0.1,0-0.2
			c-1.6-0.4-3.5-0.5-5.6-0.5C63.5,101.3,61.6,101.5,60,101.9z"/>
		<g>
			<path fill="#D6AB9A" d="M69.3,101.5C69.3,101.5,69.3,101.5,69.3,101.5c-1.2-0.1-2-1.1-2.1-2.2c0-0.6,0-1.1,0-1.5h-3.4
				c0,0.5,0.1,1,0,1.5c-0.1,1.1-0.9,2.1-2.1,2.2c0,0,0,0,0,0c0,0.2,0,0.4,0,0.6c0,2.1,1.7,3.8,3.8,3.8c2.1,0,3.8-1.7,3.8-3.8
				C69.4,101.9,69.4,101.7,69.3,101.5z"/>
		</g>
		<g>
			<path fill="#D9B9A8" d="M70.3,93.2l-0.4,1.2v-2.6C68,92.5,66,91.7,66,91.7c-2.4-0.6-3.8-0.4-4.8,0v2.8l-0.4-1.2
				c-0.5,0-0.9,0.4-0.9,0.9c0,0.5,0.4,0.9,0.9,0.9h0.4v1.4c0,2.4,1.9,4.4,4.4,4.4c2.4,0,4.4-1.9,4.4-4.4V95h0.4
				c0.5,0,0.9-0.4,0.9-0.9C71.2,93.6,70.8,93.2,70.3,93.2z"/>
		</g>
		<g>
			<path fill="#6A5868" d="M70.4,91.8c0,0-3,1.6-9.8,0.9v-3.1L70.4,91.8z"/>
		</g>
	</g>
</g>
</svg>
