<?xml version="1.0" encoding="utf-8"?>
<!-- Generator: Adobe Illustrator 18.0.0, SVG Export Plug-In . SVG Version: 6.00 Build 0)  -->
<!DOCTYPE svg PUBLIC "-//W3C//DTD SVG 1.1//EN" "http://www.w3.org/Graphics/SVG/1.1/DTD/svg11.dtd">
<svg version="1.1" id="Layer_1" xmlns="http://www.w3.org/2000/svg" xmlns:xlink="http://www.w3.org/1999/xlink" x="0px" y="0px"
	 viewBox="0 0 128 128" enable-background="new 0 0 128 128" xml:space="preserve">
<g>
	<circle fill="#6A5868" cx="64" cy="64" r="64"/>
	<path fill="#5A4A56" d="M90.8,65.9L72.4,47.5l-6.8,34.8L47.2,63.8l-6.5,33.3l-15.7-0.4l30.7,30.7c2.8,0.4,5.6,0.6,8.4,0.6
		c35.3,0,64-28.7,64-64c0-1.3,0-2.6-0.1-3.8L97.8,30.1L90.8,65.9z"/>
	<g>
		<path fill="#EF4C45" d="M80.2,90.1V32c0-1.5,1.2-2.8,2.8-2.8h12.8c1.5,0,2.8,1.2,2.8,2.8v58.1H80.2z"/>
		<path fill="#0BB6EA" d="M54.8,90.1V49.4c0-1.5,1.2-2.8,2.8-2.8h12.8c1.5,0,2.8,1.2,2.8,2.8v40.7H54.8z"/>
		<path fill="#3C9C46" d="M29.5,90.1V65.6c0-1.5,1.2-2.8,2.8-2.8h12.8c1.5,0,2.8,1.2,2.8,2.8v24.4H29.5z"/>
		<path fill="#99C23E" d="M29.5,65.6v3.6c0-1.5,1.2-2.8,2.8-2.8h12.8c1.5,0,2.8,1.2,2.8,2.8v-3.6c0-1.5-1.2-2.8-2.8-2.8H32.2
			C30.7,62.9,29.5,64.1,29.5,65.6z"/>
		<path fill="#22D2FC" d="M54.8,49.4v3.6c0-1.5,1.2-2.8,2.8-2.8h12.8c1.5,0,2.8,1.2,2.8,2.8v-3.6c0-1.5-1.2-2.8-2.8-2.8H57.6
			C56.1,46.7,54.8,47.9,54.8,49.4z"/>
		<path fill="#F45D5D" d="M80.2,32v3.6c0-1.5,1.2-2.8,2.8-2.8h12.8c1.5,0,2.8,1.2,2.8,2.8V32c0-1.5-1.2-2.8-2.8-2.8H82.9
			C81.4,29.2,80.2,30.5,80.2,32z"/>
		<path fill="#E5E8EC" d="M27.1,97.6h73.8c1.8,0,3.3-1.5,3.3-3.3v-1c0-1.8-1.5-3.3-3.3-3.3H27.1c-1.8,0-3.3,1.5-3.3,3.3v1
			C23.8,96.1,25.3,97.6,27.1,97.6z"/>
	</g>
</g>
</svg>
