<?xml version="1.0" encoding="utf-8"?>
<!-- Generator: Adobe Illustrator 18.1.1, SVG Export Plug-In . SVG Version: 6.00 Build 0)  -->
<!DOCTYPE svg PUBLIC "-//W3C//DTD SVG 1.1//EN" "http://www.w3.org/Graphics/SVG/1.1/DTD/svg11.dtd">
<svg version="1.1" id="Layer_1" xmlns="http://www.w3.org/2000/svg" xmlns:xlink="http://www.w3.org/1999/xlink" x="0px" y="0px"
	 width="90px" height="90px" viewBox="0 0 90 90" enable-background="new 0 0 90 90" xml:space="preserve">
<circle fill="#81D4EF" cx="45" cy="45" r="45"/>
<g>
	<path fill-rule="evenodd" clip-rule="evenodd" fill="#FFFFFF" d="M45,66c17.833,0,24.64-19.188,29-21c-4.36-1.813-10.833-21-29-21
		S20.36,43.188,16,45C20.36,46.812,27.167,66,45,66z"/>
	<path fill="#383128" d="M45,67c-13.137,0-20.367-9.805-25.152-16.293c-1.726-2.34-3.216-4.362-4.232-4.784
		C15.243,45.769,15,45.404,15,45c0-0.404,0.243-0.768,0.616-0.923c1.006-0.418,2.46-2.424,4.145-4.747
		C24.476,32.827,31.601,23,45,23s20.524,9.827,25.239,16.33c1.684,2.323,3.138,4.328,4.145,4.747C74.757,44.232,75,44.596,75,45
		c0,0.404-0.243,0.769-0.616,0.923c-1.016,0.422-2.506,2.443-4.232,4.784C65.367,57.195,58.137,67,45,67z M17.756,44.998
		c1.094,0.986,2.257,2.563,3.702,4.522C26.004,55.684,32.874,65,45,65s18.996-9.316,23.542-15.48
		c1.445-1.958,2.608-3.536,3.702-4.522c-1.078-0.983-2.214-2.549-3.624-4.493C64.144,34.33,57.378,25,45,25
		s-19.144,9.33-23.62,15.504C19.97,42.448,18.834,44.015,17.756,44.998z"/>
</g>
<g>
	<path fill-rule="evenodd" clip-rule="evenodd" fill="#81D4EF" d="M44.999,30C36.717,30,30,36.717,30,45c0,8.282,6.717,15,14.999,15
		C53.283,60,60,53.282,60,45C60,36.717,53.283,30,44.999,30z"/>
	<path fill="#232E38" d="M45,61c-8.822,0-16-7.178-16-16s7.177-16,16-16c8.823,0,16,7.178,16,16S53.822,61,45,61z M45,31
		c-7.719,0-14,6.28-14,14s6.28,14,14,14c7.72,0,14-6.28,14-14S52.719,31,45,31z"/>
</g>
<path fill-rule="evenodd" clip-rule="evenodd" fill="#4B6D96" d="M45,36c-4.97,0-9,4.03-9,9c0,4.969,4.03,9,9,9c4.97,0,9-4.031,9-9
	C54,40.03,49.97,36,45,36z"/>
<path fill="#232E38" d="M45,55c-5.514,0-10-4.486-10-10c0-1.561,0.35-3.057,1.041-4.446c0.246-0.495,0.846-0.698,1.34-0.451
	c0.495,0.246,0.696,0.846,0.451,1.34C37.28,42.555,37,43.751,37,45c0,4.411,3.588,8,8,8c4.412,0,8-3.589,8-8s-3.589-8-8-8
	c-1.25,0-2.446,0.28-3.555,0.832c-0.495,0.243-1.095,0.044-1.341-0.45c-0.246-0.495-0.044-1.095,0.45-1.341
	C41.943,35.351,43.438,35,45,35c5.514,0,10,4.486,10,10S50.514,55,45,55z"/>
</svg>
